<svg xmlns="http://www.w3.org/2000/svg" xmlns:xlink="http://www.w3.org/1999/xlink" width="500" zoomAndPan="magnify" viewBox="0 0 375 374.999991" height="500" preserveAspectRatio="xMidYMid meet" version="1.0"><defs><g/></defs><g fill="#ffa500" fill-opacity="1"><g transform="translate(0.0000045, 256.494958)"><g><path d="M 93.28125 2.40625 C 80.488281 2.40625 74.09375 -4.191406 74.09375 -17.390625 L 74.09375 -179.375 L 15.59375 -179.375 C 4.59375 -179.375 -0.90625 -184.769531 -0.90625 -195.5625 C -0.90625 -206.164062 4.59375 -211.46875 15.59375 -211.46875 L 170.96875 -211.46875 C 181.96875 -211.46875 187.46875 -206.164062 187.46875 -195.5625 C 187.46875 -184.769531 181.96875 -179.375 170.96875 -179.375 L 112.484375 -179.375 L 112.484375 -17.390625 C 112.484375 -4.191406 106.082031 2.40625 93.28125 2.40625 Z M 93.28125 2.40625 "/></g></g></g><g fill="#152039" fill-opacity="1"><g transform="translate(104.003904, 235.374976)"><g><path d="M 10.703125 0.796875 C 8.503906 0.796875 6.90625 0.148438 5.90625 -1.140625 C 4.90625 -2.441406 4.570312 -4.226562 4.90625 -6.5 L 14 -64.296875 C 14.601562 -68.429688 17.035156 -70.5 21.296875 -70.5 L 55.5 -70.5 C 59.101562 -70.5 60.90625 -69.132812 60.90625 -66.40625 C 60.90625 -64.53125 60.382812 -63.039062 59.34375 -61.9375 C 58.3125 -60.84375 56.832031 -60.296875 54.90625 -60.296875 L 26.296875 -60.296875 L 23.09375 -40.40625 L 48.59375 -40.40625 C 52.195312 -40.40625 54 -39.035156 54 -36.296875 C 54 -34.429688 53.484375 -32.945312 52.453125 -31.84375 C 51.421875 -30.75 49.9375 -30.203125 48 -30.203125 L 21.5 -30.203125 L 17.59375 -5.5 C 16.925781 -1.300781 14.628906 0.796875 10.703125 0.796875 Z M 10.703125 0.796875 "/></g></g></g><g fill="#152039" fill-opacity="1"><g transform="translate(160.201738, 235.374976)"><g><path d="M 5.203125 0.796875 C 2.929688 0.796875 1.257812 0.046875 0.1875 -1.453125 C -0.875 -2.953125 -0.769531 -4.769531 0.5 -6.90625 L 37.203125 -66.90625 C 38.128906 -68.4375 39.160156 -69.550781 40.296875 -70.25 C 41.429688 -70.945312 42.832031 -71.296875 44.5 -71.296875 C 47.96875 -71.296875 50.203125 -69.5625 51.203125 -66.09375 L 68.40625 -7.203125 C 69.195312 -4.535156 69.039062 -2.535156 67.9375 -1.203125 C 66.84375 0.128906 65.332031 0.796875 63.40625 0.796875 C 61.53125 0.796875 60.109375 0.332031 59.140625 -0.59375 C 58.179688 -1.53125 57.4375 -2.96875 56.90625 -4.90625 L 53.90625 -16.296875 L 19.40625 -16.296875 L 11.59375 -3 C 10.0625 -0.46875 7.929688 0.796875 5.203125 0.796875 Z M 43 -56.59375 L 25.296875 -26.5 L 51.09375 -26.5 L 43.203125 -56.59375 Z M 43 -56.59375 "/></g></g></g><g fill="#152039" fill-opacity="1"><g transform="translate(234.598869, 235.374976)"><g><path d="M 30 1 C 25.800781 1 21.617188 0.535156 17.453125 -0.390625 C 13.285156 -1.328125 9.46875 -2.832031 6 -4.90625 C 4.46875 -5.832031 3.535156 -7.03125 3.203125 -8.5 C 2.867188 -9.96875 3.015625 -11.332031 3.640625 -12.59375 C 4.273438 -13.863281 5.242188 -14.765625 6.546875 -15.296875 C 7.847656 -15.828125 9.363281 -15.59375 11.09375 -14.59375 C 14.226562 -12.863281 17.507812 -11.628906 20.9375 -10.890625 C 24.375 -10.160156 27.796875 -9.796875 31.203125 -9.796875 C 35.867188 -9.796875 39.550781 -10.695312 42.25 -12.5 C 44.945312 -14.300781 46.296875 -16.664062 46.296875 -19.59375 C 46.296875 -21.800781 45.492188 -23.65625 43.890625 -25.15625 C 42.296875 -26.65625 39.566406 -27.835938 35.703125 -28.703125 L 24.796875 -31.296875 C 19.929688 -32.429688 16.066406 -34.484375 13.203125 -37.453125 C 10.335938 -40.421875 8.90625 -44.367188 8.90625 -49.296875 C 8.90625 -53.960938 10.1875 -57.945312 12.75 -61.25 C 15.3125 -64.550781 18.726562 -67.082031 23 -68.84375 C 27.269531 -70.613281 31.90625 -71.5 36.90625 -71.5 C 40.4375 -71.5 44.203125 -71.015625 48.203125 -70.046875 C 52.203125 -69.078125 55.832031 -67.492188 59.09375 -65.296875 C 60.5 -64.367188 61.347656 -63.1875 61.640625 -61.75 C 61.941406 -60.3125 61.789062 -58.976562 61.1875 -57.75 C 60.59375 -56.519531 59.613281 -55.703125 58.25 -55.296875 C 56.882812 -54.898438 55.203125 -55.300781 53.203125 -56.5 C 50.867188 -57.894531 48.234375 -58.941406 45.296875 -59.640625 C 42.367188 -60.347656 39.503906 -60.703125 36.703125 -60.703125 C 32.234375 -60.703125 28.597656 -59.765625 25.796875 -57.890625 C 22.992188 -56.023438 21.59375 -53.53125 21.59375 -50.40625 C 21.59375 -47.863281 22.328125 -45.925781 23.796875 -44.59375 C 25.265625 -43.257812 27.429688 -42.226562 30.296875 -41.5 L 41.203125 -38.90625 C 47.128906 -37.5 51.578125 -35.257812 54.546875 -32.1875 C 57.515625 -29.125 59 -25.425781 59 -21.09375 C 59 -16.226562 57.664062 -12.144531 55 -8.84375 C 52.332031 -5.550781 48.796875 -3.085938 44.390625 -1.453125 C 39.992188 0.179688 35.195312 1 30 1 Z M 30 1 "/></g></g></g><g fill="#152039" fill-opacity="1"><g transform="translate(297.696426, 235.374976)"><g><path d="M 10.296875 0.796875 C 8.160156 0.796875 6.625 0.128906 5.6875 -1.203125 C 4.757812 -2.535156 4.5 -4.398438 4.90625 -6.796875 L 14.09375 -64.90625 C 14.757812 -69.164062 17.195312 -71.296875 21.40625 -71.296875 C 23.53125 -71.296875 25.039062 -70.628906 25.9375 -69.296875 C 26.84375 -67.960938 27.097656 -66.097656 26.703125 -63.703125 L 23.09375 -41.09375 L 59.40625 -41.09375 L 63.203125 -64.90625 C 63.867188 -69.164062 66.269531 -71.296875 70.40625 -71.296875 C 74.800781 -71.296875 76.597656 -68.765625 75.796875 -63.703125 L 66.59375 -5.703125 C 65.863281 -1.367188 63.46875 0.796875 59.40625 0.796875 C 57.195312 0.796875 55.644531 0.128906 54.75 -1.203125 C 53.851562 -2.535156 53.601562 -4.398438 54 -6.796875 L 57.703125 -30.40625 L 21.40625 -30.40625 L 17.5 -5.703125 C 16.769531 -1.367188 14.367188 0.796875 10.296875 0.796875 Z M 10.296875 0.796875 "/></g></g></g></svg>